HIERARCHY
ROOT Hips
{
    OFFSET 0.000000 0.000000 0.000000
    CHANNELS 6 Xposition Yposition Zposition Zrotation Xrotation Yrotation
    JOINT Chest
    {
        OFFSET -0.000000 0.078597 0.000000
        CHANNELS 3 Zrotation Xrotation Yrotation
        JOINT Chest2
        {
            OFFSET -0.000000 0.230468 0.000000
            CHANNELS 3 Zrotation Xrotation Yrotation
            JOINT Neck
            {
                OFFSET -0.000000 0.249638 0.000000
                CHANNELS 3 Zrotation Xrotation Yrotation
                JOINT Head
                {
                    OFFSET -0.000000 0.103998 0.019170
                    CHANNELS 3 Zrotation Xrotation Yrotation
                    End Site
                    {
                        OFFSET -0.000000 0.191701 0.000000
                    }
                }
            }
            JOINT LeftCollar
            {
                OFFSET 0.038274 0.205938 -0.001496
                CHANNELS 3 Zrotation Xrotation Yrotation
                JOINT LeftShoulder
                {
                    OFFSET 0.132388 0.000000 0.000000
                    CHANNELS 3 Zrotation Xrotation Yrotation
                    JOINT LeftElbow
                    {
                        OFFSET 0.250301 0.000000 0.000000
                        CHANNELS 3 Zrotation Xrotation Yrotation
                        JOINT LeftWrist
                        {
                            OFFSET 0.285291 0.000000 0.000000
                            CHANNELS 3 Zrotation Xrotation Yrotation
                            End Site
                            {
                                OFFSET 0.000000 -0.143776 0.000000
                            }
                        }
                    }
                }
            }
            JOINT RightCollar
            {
                OFFSET -0.038406 0.205938 -0.001496
                CHANNELS 3 Zrotation Xrotation Yrotation
                JOINT RightShoulder
                {
                    OFFSET -0.132388 0.000000 0.000000
                    CHANNELS 3 Zrotation Xrotation Yrotation
                    JOINT RightElbow
                    {
                        OFFSET -0.250301 0.000000 0.000000
                        CHANNELS 3 Zrotation Xrotation Yrotation
                        JOINT RightWrist
                        {
                            OFFSET -0.285291 0.000000 0.000000
                            CHANNELS 3 Zrotation Xrotation Yrotation
                            End Site
                            {
                                OFFSET -0.000000 -0.143776 0.000000
                            }
                        }
                    }
                }
            }
        }
    }
    JOINT LeftHip
    {
        OFFSET 0.095851 0.000000 0.000000
        CHANNELS 3 Zrotation Xrotation Yrotation
        JOINT LeftKnee
        {
            OFFSET -0.000000 -0.406444 0.000000
            CHANNELS 3 Zrotation Xrotation Yrotation
            JOINT LeftAnkle
            {
                OFFSET -0.000000 -0.408443 0.000000
                CHANNELS 3 Zrotation Xrotation Yrotation
                JOINT LeftToe
                {
                    OFFSET -0.000000 -0.062303 0.143776
                    CHANNELS 3 Zrotation Xrotation Yrotation
                    End Site
                    {
                        OFFSET -0.000000 0.000000 0.038340
                    }
                }
            }
        }
    }
    JOINT RightHip
    {
        OFFSET -0.095851 0.000000 0.000000
        CHANNELS 3 Zrotation Xrotation Yrotation
        JOINT RightKnee
        {
            OFFSET -0.000000 -0.406444 0.000000
            CHANNELS 3 Zrotation Xrotation Yrotation
            JOINT RightAnkle
            {
                OFFSET -0.000000 -0.408443 0.000000
                CHANNELS 3 Zrotation Xrotation Yrotation
                JOINT RightToe
                {
                    OFFSET -0.000000 -0.062303 0.143776
                    CHANNELS 3 Zrotation Xrotation Yrotation
                    End Site
                    {
                        OFFSET -0.000000 0.000000 0.038340
                    }
                }
            }
        }
    }
}
MOTION
Frames:    9
Frame Time:    0.016667
-0.003980    0.884180    0.081307    -0.882606    1.789296    -177.358200    0.192229    -1.004491    -0.576919    -0.799789    0.819093    -0.187272    0.099515    13.516844    0.286013    -4.252148    -4.421103    0.707379    10.437721    -2.071507    -3.029191    -18.412832    -1.199453    -7.732406    0.408429    -10.639761    0.462524    88.169540    0.459723    10.648729    -10.596190    -4.046304    2.341395    23.489996    -8.498034    -2.148538    -6.218513    -11.366070    -3.103774    -80.943680    2.894311    -11.760623    5.734710    7.469505    0.841888    -1.468291    -2.459290    -3.449247    -2.413882    -6.363045    10.838753    0.000000    0.000000    0.000000    -5.050589    10.646674    3.320051    0.553593    -5.823901    1.308459    0.904565    -8.303631    -15.549190    0.000000    0.000000    0.000000    
-0.003900    0.884201    0.081152    -0.871878    1.785454    -177.387222    0.187345    -1.018853    -0.576762    -0.805165    0.831700    -0.187174    0.093772    13.561284    0.317883    -4.308631    -4.475544    0.742002    10.478853    -2.025324    -3.019175    -18.436975    -1.450381    -7.746035    0.291049    -10.569129    0.444735    88.806297    0.864351    10.579246    -10.588278    -4.069110    2.349550    23.531050    -8.468709    -2.150881    -6.272394    -11.372773    -3.098165    -80.877350    2.872605    -11.768405    5.749816    7.468221    0.845003    -1.470422    -2.434993    -3.444929    -2.419588    -6.381472    10.859856    0.000000    0.000000    0.000000    -5.040373    10.656260    3.337827    0.554222    -5.847064    1.319786    0.936385    -8.306027    -15.555711    0.000000    0.000000    0.000000    
-0.003866    0.884195    0.080960    -0.876709    1.786183    -177.434418    0.178140    -1.035920    -0.560269    -0.823283    0.853698    -0.181605    -0.001342    13.477402    0.433288    -4.173553    -4.323264    0.830607    10.489873    -2.017878    -3.010184    -18.441904    -1.425790    -7.774282    0.339134    -10.544964    0.483604    88.415428    0.518529    10.553537    -10.585875    -4.078163    2.328912    23.518961    -8.491914    -2.129461    -6.200264    -11.257801    -3.132491    -81.562988    3.038601    -11.648373    5.750716    7.499539    0.868151    -1.487255    -2.437547    -3.664687    -2.373654    -6.412616    11.106645    0.000000    0.000000    0.000000    -5.049276    10.670518    3.355062    0.551246    -5.867136    1.328286    0.953019    -8.304378    -15.539134    0.000000    0.000000    0.000000    
-0.003794    0.884219    0.080802    -0.863431    1.790431    -177.455200    0.156655    -1.017501    -0.562625    -0.778893    0.840385    -0.182644    -0.145633    13.576818    0.457324    -4.016693    -4.489696    0.798657    10.487283    -2.034221    -2.974910    -18.476345    -1.361279    -7.757027    0.340290    -10.628799    0.439678    88.831062    0.877434    10.639038    -10.660687    -4.110135    2.292925    23.611065    -8.383904    -2.100754    -6.233513    -11.281658    -3.159867    -81.591911    2.977083    -11.669277    5.769024    7.510321    0.907999    -1.491356    -2.417508    -3.695299    -2.369850    -6.414360    11.105873    0.000000    0.000000    0.000000    -5.027431    10.693877    3.335725    0.541951    -5.891971    1.347617    0.942712    -8.257649    -15.511269    0.000000    0.000000    0.000000    
-0.003769    0.884199    0.080675    -0.854261    1.782542    -177.481049    0.169882    -1.030333    -0.562171    -0.815403    0.830153    -0.182313    -0.173564    13.489289    0.515923    -3.989367    -4.285048    0.857011    10.513865    -2.044174    -2.976255    -18.487782    -1.375844    -7.737887    0.237772    -10.885777    0.277711    89.523071    1.093272    10.890892    -10.652350    -4.116387    2.302458    23.631002    -8.363523    -2.103748    -6.218830    -11.297871    -3.177510    -81.785271    2.996524    -11.682365    5.779868    7.531243    0.891200    -1.499482    -2.445934    -3.649003    -2.371023    -6.424129    11.110657    0.000000    0.000000    0.000000    -5.021163    10.699286    3.345933    0.544569    -5.906743    1.322897    0.930012    -8.241974    -15.466125    0.000000    0.000000    0.000000    
-0.003800    0.884239    0.080477    -0.857150    1.779012    -177.517654    0.180521    -1.045787    -0.559650    -0.853121    0.826553    -0.181155    -0.195252    13.496958    0.534259    -4.019153    -4.253515    0.874272    10.523028    -2.013664    -2.995805    -18.424156    -1.509001    -7.668568    0.085430    -10.783097    0.275839    89.495628    1.015691    10.787766    -10.664436    -4.112625    2.318294    23.678619    -8.348917    -2.108541    -6.253477    -11.382678    -3.198818    -81.943268    3.142055    -11.775308    5.765583    7.556078    0.877122    -1.487734    -2.460033    -3.612637    -2.273122    -6.430628    11.104614    0.000000    0.000000    0.000000    -5.033643    10.710763    3.359163    0.547470    -5.925900    1.349927    0.960746    -8.250636    -15.470823    0.000000    0.000000    0.000000    
-0.003862    0.884303    0.080409    -0.892742    1.754232    -177.526184    0.159566    -1.052964    -0.574732    -0.906715    0.794320    -0.186043    -0.174484    13.540089    0.557778    -4.114839    -4.310140    0.910670    10.581286    -2.012306    -2.995384    -18.464808    -1.529383    -7.644547    0.095307    -10.792480    0.170200    89.473717    1.226755    10.798256    -10.637644    -4.110219    2.318359    23.666630    -8.357128    -2.113441    -6.267518    -11.594069    -3.178683    -81.999001    3.223521    -11.990033    5.712232    7.536077    0.849738    -1.463791    -2.462202    -3.601287    -2.388561    -6.367579    11.155264    0.000000    0.000000    0.000000    -5.082534    10.689050    3.344642    0.564436    -5.927760    1.385535    0.979252    -8.264490    -15.500880    0.000000    0.000000    0.000000    
-0.003788    0.884306    0.080366    -0.893722    1.726233    -177.529144    0.144037    -1.056145    -0.592439    -0.908701    0.750519    -0.192397    -0.227375    13.581072    0.573131    -4.119476    -4.356860    0.911890    10.578567    -2.068449    -3.028462    -18.440689    -1.566430    -7.558410    -0.008300    -10.846869    0.111683    89.661125    1.251222    10.850568    -10.652249    -4.118065    2.310544    23.692352    -8.359570    -2.124252    -6.291797    -11.624625    -3.158214    -81.971672    3.193383    -12.018796    5.716734    7.506266    0.849169    -1.471708    -2.451127    -3.596743    -2.399935    -6.370001    11.178480    0.000000    0.000000    0.000000    -5.075865    10.659044    3.348454    0.562168    -5.922912    1.382769    1.027478    -8.322592    -15.599137    0.000000    0.000000    0.000000    
-0.003757    0.884315    0.080267    -0.892635    1.717886    -177.535522    0.145830    -1.023143    -0.634809    -0.931832    0.661872    -0.207066    -0.237489    13.659443    0.595424    -4.223854    -4.425599    0.939122    10.614030    -2.048128    -2.977935    -18.491926    -1.466317    -7.604058    0.063427    -10.873990    0.219687    89.590393    1.204931    10.878421    -10.647347    -4.114228    2.344158    23.686981    -8.311255    -2.120800    -6.803899    -20.535898    -3.277630    -81.974655    3.925424    -3.299672    5.714608    7.497291    0.934892    -1.469042    -2.429415    -3.658970    -2.406090    -6.374639    11.158519    0.000000    0.000000    0.000000    -5.076338    10.655201    3.344495    0.563171    -5.914548    1.371961    0.915178    -8.223367    -15.467958    0.000000    0.000000    0.000000    
